Coordinates
version=1
nRows=11
nColumns=40
inDegrees=yes

Units are S.I. units (second, meters, Newtons, ...)
Angles are in degrees.

endheader
time	pelvis_tilt	pelvis_list	pelvis_rotation	pelvis_tx	pelvis_ty	pelvis_tz	hip_flexion_r	hip_adduction_r	hip_rotation_r	knee_angle_r	knee_angle_r_beta	ankle_angle_r	subtalar_angle_r	mtp_angle_r	hip_flexion_l	hip_adduction_l	hip_rotation_l	knee_angle_l	knee_angle_l_beta	ankle_angle_l	subtalar_angle_l	mtp_angle_l	lumbar_extension	lumbar_bending	lumbar_rotation	arm_flex_r	arm_add_r	arm_rot_r	elbow_flex_r	pro_sup_r	wrist_flex_r	wrist_dev_r	arm_flex_l	arm_add_l	arm_rot_l	elbow_flex_l	pro_sup_l	wrist_flex_l	wrist_dev_l
     10.56000000	     -4.12223858	     -5.23783744	      3.57184278	      1.06003699	      0.92111634	      0.36308412	     22.98138627	     -5.71831290	      0.34230710	     63.59980139	     63.59980139	      8.08826174	    -13.13843830	      1.82975244	     22.61310519	     -3.18938757	     -2.36871388	     29.56259951	     29.56259951	     14.18940421	    -14.30181241	      2.40605290	    -10.70044355	      5.52028544	      3.04718814	      8.64146671	    -12.97986653	     -3.12243064	     24.76331427	     44.75397418	      0.00000000	      0.00000000	     24.28975318	    -13.16507705	     13.55327758	     35.24883362	     44.04206486	      0.00000000	      0.00000000
     10.58150000	     -3.97756803	     -5.23956806	      3.12431579	      1.05946743	      0.92074935	      0.36110571	     23.79674810	     -5.75815491	      0.53360265	     62.91914081	     62.91914081	      8.20643752	    -13.26410017	      1.88743498	     22.29079859	     -3.15216356	     -2.56069424	     29.89555501	     29.89555501	     14.57366970	    -14.68258557	      2.30175935	    -10.85202807	      5.78684866	      2.02983315	      5.87247359	    -12.77096035	     -3.10882412	     23.84804623	     44.77320659	      0.00000000	      0.00000000	     25.74045515	    -14.16883701	     13.17067723	     35.82731592	     44.11450574	      0.00000000	      0.00000000
     10.60300000	     -3.94535029	     -5.31474488	      2.52466810	      1.05872095	      0.92015166	      0.35934684	     24.73515329	     -5.62128704	      0.78467586	     61.86841980	     61.86841980	      8.13550310	    -13.61041385	      1.54465295	     22.19227032	     -3.19394339	     -2.72220815	     30.46411917	     30.46411917	     15.36607935	    -15.15514697	      3.31764872	    -11.07283961	      6.08306024	      2.43718853	      1.16092545	    -13.17748850	     -2.67634011	     25.78890797	     44.81603201	      0.00000000	      0.00000000	     27.23839760	    -13.75319285	      9.26285494	     38.62783077	     44.83076736	      0.00000000	      0.00000000
     10.62450000	     -3.86476662	     -5.31670304	      1.93757796	      1.05798554	      0.91972097	      0.35777457	     25.53003264	     -5.61782700	      0.81388432	     60.39094182	     60.39094182	      8.33380112	    -13.62684596	      1.59861195	     21.90871072	     -3.18828868	     -2.98121920	     30.77548409	     30.77548409	     15.72491035	    -15.59448631	      3.24300940	    -11.20908493	      6.32129785	      1.56213363	     -1.61560649	    -13.20980102	     -2.67137189	     24.87340370	     44.83646719	      0.00000000	      0.00000000	     28.85290343	    -14.86452372	      8.78748352	     39.31843246	     44.91285007	      0.00000000	      0.00000000
     10.64600000	     -3.84637996	     -5.39771907	      1.14867278	      1.05714368	      0.91934608	      0.35676814	     26.26333714	     -5.40892745	      0.84535378	     58.28770356	     58.28770356	      8.31759970	    -13.76334714	      1.00665811	     21.70231093	     -3.33863290	     -3.35324758	     31.13844056	     31.13844056	     16.17741648	    -16.08778706	      3.60117662	    -11.47377547	      6.57202745	      2.28628722	     -5.41430499	    -13.41685724	     -2.74436138	     24.78865138	     44.84356782	      0.00000000	      0.00000000	     30.68431821	    -14.78262869	      7.21814512	     41.73985990	     45.15681569	      0.00000000	      0.00000000
     10.66750000	     -3.88559037	     -5.48691897	      0.34414551	      1.05627901	      0.91917467	      0.35618494	     26.81653055	     -5.21780575	      0.57656188	     55.45926513	     55.45926513	      7.93844912	    -13.79722236	     -0.98006960	     21.49481018	     -3.54215880	     -3.79715756	     31.38796412	     31.38796412	     16.76599825	    -16.29535003	      4.35588905	    -11.66491567	      6.83970376	      2.18413415	     -8.99689838	    -13.53482526	     -3.14422615	     26.53358741	     44.82852967	      0.00000000	      0.00000000	     31.96552161	    -15.11140162	      4.24004467	     44.13972363	     45.55993482	      0.00000000	      0.00000000
     10.68900000	     -3.96802206	     -5.62537138	     -0.55655443	      1.05530773	      0.91926786	      0.35619314	     27.15680584	     -4.90889085	      0.14086875	     51.87156197	     51.87156197	      7.11954196	    -13.78343532	     -4.15179236	     21.27047535	     -3.86345997	     -4.35622355	     31.52445539	     31.52445539	     17.27722876	    -16.49935972	      5.06284216	    -11.78193036	      7.12191771	      1.76002731	    -11.74615418	    -13.68544451	     -3.34291382	     27.85817513	     44.87092938	      0.00000000	      0.00000000	     33.23748352	    -15.71704212	      1.13213697	     45.75088595	     45.97541208	      0.00000000	      0.00000000
     10.71050000	     -4.16254230	     -5.75913777	     -1.54843991	      1.05426762	      0.91963978	      0.35685517	     27.48800239	     -4.49002920	     -0.39214762	     47.93866898	     47.93866898	      7.36252038	    -12.74886432	     -4.12981942	     21.00791721	     -4.24739618	     -5.04023869	     31.36134365	     31.36134365	     17.41292916	    -16.70494554	      5.15358019	    -11.72815228	      7.31167132	      1.58653690	    -13.59633368	    -13.66234062	     -3.32925538	     27.33331206	     44.88899706	      0.00000000	      0.00000000	     34.81055606	    -16.72866036	      0.63269272	     46.62218505	     46.05358211	      0.00000000	      0.00000000
     10.73200000	     -4.40022646	     -5.91409488	     -2.60134421	      1.05321650	      0.92030600	      0.35802432	     27.58160714	     -3.95744631	     -1.04882774	     43.43257567	     43.43257567	      7.44381792	    -11.17873885	     -4.23694851	     20.67838048	     -4.70331168	     -5.82234399	     31.01597719	     31.01597719	     17.53111110	    -16.79871798	      5.28641432	    -11.67978429	      7.50469371	      1.64747842	    -15.28436534	    -13.56137792	     -3.36190090	     27.11464295	     44.89837531	      0.00000000	      0.00000000	     36.31820033	    -17.59254536	      0.00775753	     47.80022049	     46.14511448	      0.00000000	      0.00000000
     10.75350000	     -4.65045455	     -5.97662837	     -3.69867803	      1.05220786	      0.92123711	      0.35963662	     27.31742169	     -3.47750702	     -1.90351361	     38.18584070	     38.18584070	      6.08954911	     -9.40555965	     -7.90141338	     20.24604563	     -5.12041428	     -6.79264608	     30.49302249	     30.49302249	     17.58177038	    -16.73414049	      5.34010866	    -11.73275769	      7.56752820	      1.67533582	    -17.36388368	    -13.48957384	     -3.70028762	     29.20448292	     44.95490075	      0.00000000	      0.00000000	     37.03619277	    -18.17291941	     -2.91743136	     51.01663758	     46.51923581	      0.00000000	      0.00000000
     10.77500000	     -4.93228723	     -6.08563349	     -4.79000982	      1.05125644	      0.92244047	      0.36173175	     26.95934818	     -2.78774849	     -2.70932680	     32.99425664	     32.99425664	      5.78706060	     -6.52136399	     -7.34373881	     19.74458993	     -5.59720365	     -7.75154788	     29.80903794	     29.80903794	     17.57079820	    -16.64521318	      5.38750017	    -11.62699400	      7.64646079	      1.81087551	    -18.45557331	    -13.26836060	     -3.68492240	     29.19808857	     44.96061240	      0.00000000	      0.00000000	     38.46976514	    -19.07748314	     -3.39862979	     52.14329425	     46.59621789	      0.00000000	      0.00000000
